# xmcd
#
# Track frame offsets:
#	183
#	13025
#	26225
#	38328
#	53718
#	69185
#	82433
#	104405
#	115630
#	130270
#	142420
#	155858
#	173293
#	199268
#	211708
#	227103
#	246758
#	269555
#
# Disc length: 3803
#
# Revision: 2
# Processed by: cddbd v1.5.1PL0 Copyright (c) Steve Scherf et al.
# Submitted via: CDex 1.40Release
# Normalized: r1:TDELIM( - )
#
DISCID=000ed912
DTITLE=Varies - Ces années là 70
DYEAR=1900
DGENRE=
TTITLE0=Nicoletta - Ma vie c'est un manège
TTITLE1=Sacha Distel - Toute la pluie tombe sur moi
TTITLE2=Rare Bird - Sympathy
TTITLE3=Gilbert Bécaud - La solitude ça nexiste pas
TTITLE4=Julien Clerc - Ce n'est rien
TTITLE5=Tom Jones - I who have nothing
TTITLE6=Barbara - L'aigle noir
TTITLE7=Serge Reggiani - Ma liberté
TTITLE8=Marc Hamilton - Comme j'ai toujours envie d'aimer
TTITLE9=Christie - Yellow River
TTITLE10=Mardi gras - Girl I ve got news for you
TTITLE11=Thunderclap Newman - Something in the air
TTITLE12=Pacific Gas and Electric - Are you ready
TTITLE13=Rare Earth - Get ready
TTITLE14=Daniel Gérard - Butterfly
TTITLE15=Hotlegs - Neanderthal man
TTITLE16=James Brown - Sex machine
TTITLE17=Julien Clerc - 4 h du matin
EXTD=
EXTT0=
EXTT1=
EXTT2=
EXTT3=
EXTT4=
EXTT5=
EXTT6=
EXTT7=
EXTT8=
EXTT9=
EXTT10=
EXTT11=
EXTT12=
EXTT13=
EXTT14=
EXTT15=
EXTT16=
EXTT17=
PLAYORDER=
